<mxfile host="app.diagrams.net" modified="2023-05-24T16:08:07.703Z" agent="Mozilla/5.0 (Windows NT 10.0; Win64; x64) AppleWebKit/537.36 (KHTML, like Gecko) Chrome/113.0.0.0 Safari/537.36 Edg/113.0.1774.50" etag="QMI8DeCnZZHhUT4Qb6cj" version="21.3.3" type="github">
  <diagram id="C5RBs43oDa-KdzZeNtuy" name="Page-1">
    <mxGraphModel dx="786" dy="458" grid="1" gridSize="10" guides="1" tooltips="1" connect="1" arrows="1" fold="1" page="1" pageScale="1" pageWidth="827" pageHeight="1169" math="0" shadow="0">
      <root>
        <mxCell id="WIyWlLk6GJQsqaUBKTNV-0" />
        <mxCell id="WIyWlLk6GJQsqaUBKTNV-1" parent="WIyWlLk6GJQsqaUBKTNV-0" />
        <mxCell id="WDm5DXxTPcnoRDxQkjZs-2" style="edgeStyle=orthogonalEdgeStyle;rounded=0;orthogonalLoop=1;jettySize=auto;html=1;entryX=0.5;entryY=0;entryDx=0;entryDy=0;" parent="WIyWlLk6GJQsqaUBKTNV-1" source="WIyWlLk6GJQsqaUBKTNV-3" target="WDm5DXxTPcnoRDxQkjZs-0" edge="1">
          <mxGeometry relative="1" as="geometry" />
        </mxCell>
        <mxCell id="WIyWlLk6GJQsqaUBKTNV-3" value="Bobby assigns segment tickets in azure devops" style="rounded=1;whiteSpace=wrap;html=1;fontSize=12;glass=0;strokeWidth=1;shadow=0;" parent="WIyWlLk6GJQsqaUBKTNV-1" vertex="1">
          <mxGeometry x="110" y="50" width="160" height="50" as="geometry" />
        </mxCell>
        <mxCell id="CHIZGY7ury58yjBskZE--2" style="edgeStyle=orthogonalEdgeStyle;rounded=0;orthogonalLoop=1;jettySize=auto;html=1;" edge="1" parent="WIyWlLk6GJQsqaUBKTNV-1" source="WIyWlLk6GJQsqaUBKTNV-12" target="CHIZGY7ury58yjBskZE--1">
          <mxGeometry relative="1" as="geometry" />
        </mxCell>
        <mxCell id="WIyWlLk6GJQsqaUBKTNV-12" value="automatically navigate to the segment folder&amp;nbsp;&lt;br&gt;&lt;ul&gt;&lt;li&gt;create a folder with the vso number&lt;/li&gt;&lt;li&gt;move the excel template and fill the excel with transformed dataframe&amp;nbsp;&lt;/li&gt;&lt;/ul&gt;" style="rounded=1;whiteSpace=wrap;html=1;fontSize=12;glass=0;strokeWidth=1;shadow=0;align=center;" parent="WIyWlLk6GJQsqaUBKTNV-1" vertex="1">
          <mxGeometry x="60" y="410" width="260" height="120" as="geometry" />
        </mxCell>
        <mxCell id="kzW7z7MB4IxIZcjGO9w3-5" value="" style="edgeStyle=orthogonalEdgeStyle;rounded=0;orthogonalLoop=1;jettySize=auto;html=1;" parent="WIyWlLk6GJQsqaUBKTNV-1" source="WDm5DXxTPcnoRDxQkjZs-0" target="kzW7z7MB4IxIZcjGO9w3-2" edge="1">
          <mxGeometry relative="1" as="geometry" />
        </mxCell>
        <mxCell id="WDm5DXxTPcnoRDxQkjZs-0" value="fetch the values using azure-devops python packages&amp;nbsp;" style="rounded=1;whiteSpace=wrap;html=1;fontSize=12;glass=0;strokeWidth=1;shadow=0;" parent="WIyWlLk6GJQsqaUBKTNV-1" vertex="1">
          <mxGeometry x="100" y="130" width="180" height="70" as="geometry" />
        </mxCell>
        <mxCell id="WDm5DXxTPcnoRDxQkjZs-3" value="using selenium route to dsp tool with the created segment name, generate the segment id and activate it" style="rounded=1;whiteSpace=wrap;html=1;fontSize=12;glass=0;strokeWidth=1;shadow=0;" parent="WIyWlLk6GJQsqaUBKTNV-1" vertex="1">
          <mxGeometry x="470" y="280" width="190" height="80" as="geometry" />
        </mxCell>
        <mxCell id="kzW7z7MB4IxIZcjGO9w3-0" value="" style="shape=image;verticalLabelPosition=bottom;labelBackgroundColor=default;verticalAlign=top;aspect=fixed;imageAspect=0;image=data:image/jpeg,/9j/4AAQSkZJRgABAQAAAQABAAD/2wCEAAkGBwgHBgkIBwgKCgkLDRYPDQwMDRsUFRAWIB0iIiAdHx8kKDQsJCYxJx8fLT0tMTU3Ojo6Iys/RD84QzQ5OjcBCgoKDQwNGg8PGjclHyU3Nzc3Nzc3Nzc3Nzc3Nzc3Nzc3Nzc3Nzc3Nzc3Nzc3Nzc3Nzc3Nzc3Nzc3Nzc3Nzc3N//AABEIAHsAcAMBEQACEQEDEQH/xAAcAAACAgMBAQAAAAAAAAAAAAAAAgMEAQUGBwj/xABIEAABAwMABAgHCg4DAAAAAAABAAIDBAURBhIhMQcTQVFhcZGSIlJygbHB0hQyM0JEU1SCodEVI0VWdIOUoqOywuHi8DQ1Rv/EABsBAQACAwEBAAAAAAAAAAAAAAABAgMEBQYH/8QANBEAAgEDAQUECAcBAQAAAAAAAAECAwQRMQUSFCFRE0FSkSIyQmFxgaHBM1NisdHh8EMV/9oADAMBAAIRAxEAPwD3FACAEBSu9ygtVDJV1JOo3YGje48gCvTg6kt1FKlRU47zPOrlpndat5EEjaSI7mxDLu8fVhdGFrTjrzOdO6qS05GjnuVdMTxtdUyeVM4+tZ1CC0Rgc5PVlN7y45c4nrKkgG1M8fwU8rPJeQoaT1RKbXeXqPSW9UTw6G5VDgPiyv4xvY7Kxyo05aoyRrVI6M9C0Q0vivZ9yVLGw1zRnVb72Qcpb09C0K1B0+a0N6hXVTk9TqlrmyCAEAIAQAgBAcPwmykRUEOfBc57iOkYA9JW7ZLm2aN6+SRPwc0dL+DJKsNa6pdKWOcdpaBjAHNz+dVvJS38dxazjHcz3mq4S6Olp6qkqIWtZPMHiQNGNYDGCenb/uFls5SaaZjvIpNNHDuK3DTEJQkQlANS1slvq4a2IkPp3iRuOjbjz7lVx3lu9SVLde90PoEHO1cU7RlACAEAIAQAgOC4UDh1u/Wf0resvaNG99k4633eutT3PoKp0Jd74DBB6wVtzpxn6yNOFSUPVZXr7hU3Ccz1tQ6aUjGs47hzDmUxjGKxESk5PMmVCekKxUQlCRCVAIKg/iZPJPoUrUS9Vn0YzcOpcM7YyAEAIDBIAyTgIDl7npvbqN5jpmvq3jeY9jO8d/mWzC0nLm+Rqzu4R5Lmaw8ImPyZ/H/xWXgv1GPjfcQT6ewz44+yxSau7XkBx2tUqza0kQ7tPWJCdOKIf+fpu832VPCy8RHFR8Ip05ofzepu832U4WXiHFR8JQvellJcrZNSRWWCnfIBiVrhluCD4vQrQt5Rkm5FZ3ClFrdOScVsmsRuKEkFQfxMnkn0KVqRLRn0RNU8TqgNzkZ3ryt3ecPJR3c5O/Tp76I/dx+b+1an/rfo+v8ARk7D3k8FSyXYNjuYrdtr2nX5Lk+hjnTcdSdbhjOG4Qry9mraqd5Ac3XnIO8Hc31nzLetKSfps0buq16CODcVvmgI4oCNxUEkZKAQlCRHFQCMlCSNxQEU/wADJ5J9CLUiWjPoKu99H5K8Rtb8SPwPSW+jKuVyMmwKHlrg5pwQchIzcJKS1RLjlYN1C8SRteOUZXrqNVVaamu850o7rweP6SVRqr7Xy7xxzmjqb4I+wLu0Y7tNI41aW9UkzVOKymIjcVBIjigEJQkjcVAIyUJEcUAhUAvWS2yXe7U1BGwu454Dz4rPjHzDKrOe5FyLwjvyUT26ufrT4G5owvB7TqqdbC7j0dCOIlUlc1sziEqrZODaWt+tAW+K7C9HsipvUGuj/s07hYkeLzSGSV8h3vcXdq9iuSwebby8kLigI3FAI442k7EJN/bNC73cYxK2nbTxOGQ6pdq58209oWvO5px5ZyZ4W9SXPQvHg2vB+VUHff7KpxkOjMnCT6ing0vJ+VUHff7KjjIdGOEn1FPBlefpdB33+ynGQ6McJPqPFwY3MyD3RX0cbOUs1nHsIHpUO8gloSrSXU66xWW3aNQPZQ5mqpBiSofvPQOYdA864O0NrrGIPL+i/k6NtaKPNlknJyd5Xl3Jt5Z0UhCVXJbBglVbJNhZ3ZMo6l3NiS5zXw+5q3S0Z49XxmCtqYfm5Xs7CQvdReYpnmJLEmiq4qSCMlCTveD6wQin/DdfGHHWIpmOG7HxuvI2dWVy9oXaowfu/wBg37O33vSZ18s0kh2uIHMF46td1ary3hdEdmNOMSNa+WXwgJTLGBSVVyZOBXFVbyWSFJVGycC5VclsCkqrZOBSVXJODZWUfDO6gu/sOPKcvgad29EeZ6cUho9JasYwyYiZnTrb/wB7K9pbS3qaPPXEd2ozniVnMIjigPaaKJtPY7ZBHsY2nZgfVC8dtqbckvez0FpFKK+BlcI3DBKjIFJUNkpCkqjZYUlVbJwKSq5JwYJVckiEquSwpKqSje2qLi6Rud7/AAl6/ZVF0rZZ1fM5lxLeqM0mnGjzrzRMmpADW0+dQbtdvK37v7rtW9bs5YejNC4o9osrVHkszHwyvimjfHKw4cx4w5vWF0001lHMaw8MgedhQHt8X/VW79HZ/KF4zbPrR+f2PRWvqikriZNoUlVbLCEqjZIpKq2SjBKrkkUlQywhKqyULlUZYsUVK6qlAweLB8J3qW5Y2Urqolj0e9/b4mGtVVOPvOhAwABuXtUktDlGVIKtZbaKux7tpKeox87E13pVozlHRlZQjLVFM6M2I/ka3/srPuVu2q+J+ZTsKXhXkS17WxMhjjaGsaNVoAwAAuBth84fP7G9bLUpEriNm0ISqtkjRPayUOkbrNG9vOslCpCnUUprK6ETi2sJlg1dL9Eb2BdDj7P8n9jD2NXxmDWUn0NvYFD2hZfkfRE9jV8QpraQD/hN7AqPaFilnh15RJ7Ct4/3NkKSmPyeLuBdzgLR/wDKPkjU7Wp4n5mRR04OyCIfUCsrG1jpTj5IdrU8TJmtDRgAAcwWzGKisIxt5MqQCAEAIDXXU44vzrh7Z9j5/Y2rbvNeSuE2beBSVVlhSVVgQlUyWNnHaQ6LL5XCTHIBgL0FPYkXT9OT3vlg0ndtS5LkaueN0T3xu3tyCvPXFN0pShLVG9CSkk0dQ3cvoCOKZUgEAIAQAgBAVLhA6aLLRlzTkDnXO2jauvS9HVf7Bmo1FCXM0x2b15R8nzOihSVVsnApKq2WwKVXJJtY7uwRYkjcZMcmMFeip7ch2fpxe97tDQlaPe5PkVKaKSuqy9w8Eu1nnkHQuda0al9c78tM5f8AH2M9ScaNPCN+BhexOYZQAgBACAEAIAQFaooopzlww7xmrSubCjcc5LD6oywrShoUZbTIPg5Gnyti5FXYlRfhzT+P+Zsxu17SIDbarxW95aj2Pd50XmZeKpmWWqocfCLG9ZV4bEuX6zSId3T7i1DaGN2yyF/QNgXQo7Dpx51JZ+hgndyfqrBsI42RN1WNDWjkC7NOnCnHdgsI1XJyeWOrkAgBACAEAIAQAgBAYyOdAGQgDIQBkIDKAEAIAQAgBACAEArkBG4nnQCElALkoDOSgGBPOgJASgJAgBACAEB//9k=;" parent="WIyWlLk6GJQsqaUBKTNV-1" vertex="1">
          <mxGeometry x="460" y="155" width="27.32" height="30" as="geometry" />
        </mxCell>
        <mxCell id="kzW7z7MB4IxIZcjGO9w3-4" style="edgeStyle=orthogonalEdgeStyle;rounded=0;orthogonalLoop=1;jettySize=auto;html=1;entryX=0.5;entryY=0;entryDx=0;entryDy=0;" parent="WIyWlLk6GJQsqaUBKTNV-1" source="kzW7z7MB4IxIZcjGO9w3-2" target="WDm5DXxTPcnoRDxQkjZs-3" edge="1">
          <mxGeometry relative="1" as="geometry" />
        </mxCell>
        <mxCell id="kzW7z7MB4IxIZcjGO9w3-17" style="edgeStyle=orthogonalEdgeStyle;rounded=0;orthogonalLoop=1;jettySize=auto;html=1;entryX=0.5;entryY=0;entryDx=0;entryDy=0;" parent="WIyWlLk6GJQsqaUBKTNV-1" source="kzW7z7MB4IxIZcjGO9w3-18" target="WIyWlLk6GJQsqaUBKTNV-12" edge="1">
          <mxGeometry relative="1" as="geometry" />
        </mxCell>
        <mxCell id="kzW7z7MB4IxIZcjGO9w3-2" value="Transform the values from to dataframe and extract the&amp;nbsp;" style="rounded=1;whiteSpace=wrap;html=1;fontSize=12;glass=0;strokeWidth=1;shadow=0;" parent="WIyWlLk6GJQsqaUBKTNV-1" vertex="1">
          <mxGeometry x="100" y="230" width="180" height="60" as="geometry" />
        </mxCell>
        <mxCell id="kzW7z7MB4IxIZcjGO9w3-6" value="devops_segment.py" style="whiteSpace=wrap;html=1;strokeColor=#ffffff;" parent="WIyWlLk6GJQsqaUBKTNV-1" vertex="1">
          <mxGeometry x="320" y="150" width="120" height="40" as="geometry" />
        </mxCell>
        <mxCell id="kzW7z7MB4IxIZcjGO9w3-12" value="dsp_segment.py" style="whiteSpace=wrap;html=1;strokeColor=#ffffff;" parent="WIyWlLk6GJQsqaUBKTNV-1" vertex="1">
          <mxGeometry x="320" y="230" width="120" height="40" as="geometry" />
        </mxCell>
        <mxCell id="kzW7z7MB4IxIZcjGO9w3-19" value="" style="edgeStyle=orthogonalEdgeStyle;rounded=0;orthogonalLoop=1;jettySize=auto;html=1;entryX=0.5;entryY=0;entryDx=0;entryDy=0;" parent="WIyWlLk6GJQsqaUBKTNV-1" source="kzW7z7MB4IxIZcjGO9w3-2" target="kzW7z7MB4IxIZcjGO9w3-18" edge="1">
          <mxGeometry relative="1" as="geometry">
            <mxPoint x="190" y="290" as="sourcePoint" />
            <mxPoint x="190" y="360" as="targetPoint" />
          </mxGeometry>
        </mxCell>
        <mxCell id="kzW7z7MB4IxIZcjGO9w3-18" value="append the dataframe into excel template" style="rounded=1;whiteSpace=wrap;html=1;fontSize=12;glass=0;strokeWidth=1;shadow=0;" parent="WIyWlLk6GJQsqaUBKTNV-1" vertex="1">
          <mxGeometry x="110" y="320" width="160" height="60" as="geometry" />
        </mxCell>
        <mxCell id="CHIZGY7ury58yjBskZE--0" value="function.py" style="whiteSpace=wrap;html=1;strokeColor=#ffffff;" vertex="1" parent="WIyWlLk6GJQsqaUBKTNV-1">
          <mxGeometry x="320" y="330" width="120" height="40" as="geometry" />
        </mxCell>
        <mxCell id="CHIZGY7ury58yjBskZE--1" value="" style="rounded=1;whiteSpace=wrap;html=1;fontSize=12;glass=0;strokeWidth=1;shadow=0;align=center;" vertex="1" parent="WIyWlLk6GJQsqaUBKTNV-1">
          <mxGeometry x="414" y="410" width="260" height="120" as="geometry" />
        </mxCell>
      </root>
    </mxGraphModel>
  </diagram>
</mxfile>
